<svg height="3198" width="720" xmlns="http://www.w3.org/2000/svg">
<rect height="3198" fill="#555" width="720"></rect>
<text fill="#7f7" font-family="Courier New" font-size="12" xml:space="preserve">
<tspan x="10" y="26">26 megabytes installed</tspan>
<tspan x="10" y="42"></tspan>
<tspan x="10" y="58">node_modules</tspan>
<tspan x="10" y="74">├─┬ generator-angular-php@0.6.3 </tspan>
<tspan x="10" y="90">│ ├─┬ chalk@0.4.0 </tspan>
<tspan x="10" y="106">│ │ ├── ansi-styles@1.0.0 </tspan>
<tspan x="10" y="122">│ │ ├── has-color@0.1.7 </tspan>
<tspan x="10" y="138">│ │ └── strip-ansi@0.1.1 </tspan>
<tspan x="10" y="154">│ ├─┬ wiredep@1.8.6 </tspan>
<tspan x="10" y="170">│ │ ├─┬ bower-config@0.5.2 </tspan>
<tspan x="10" y="186">│ │ │ ├── graceful-fs@2.0.3 </tspan>
<tspan x="10" y="202">│ │ │ ├── mout@0.9.1 </tspan>
<tspan x="10" y="218">│ │ │ ├─┬ optimist@0.6.1 </tspan>
<tspan x="10" y="234">│ │ │ │ ├── minimist@0.0.10 </tspan>
<tspan x="10" y="250">│ │ │ │ └── wordwrap@0.0.3 </tspan>
<tspan x="10" y="266">│ │ │ └── osenv@0.0.3 </tspan>
<tspan x="10" y="282">│ │ ├─┬ chalk@0.5.1 </tspan>
<tspan x="10" y="298">│ │ │ ├── ansi-styles@1.1.0 </tspan>
<tspan x="10" y="314">│ │ │ ├── escape-string-regexp@1.0.5 </tspan>
<tspan x="10" y="330">│ │ │ ├─┬ has-ansi@0.1.0 </tspan>
<tspan x="10" y="346">│ │ │ │ └── ansi-regex@0.2.1 </tspan>
<tspan x="10" y="362">│ │ │ ├── strip-ansi@0.3.0 </tspan>
<tspan x="10" y="378">│ │ │ └── supports-color@0.2.0 </tspan>
<tspan x="10" y="394">│ │ ├─┬ glob@4.5.3 </tspan>
<tspan x="10" y="410">│ │ │ ├─┬ inflight@1.0.6 </tspan>
<tspan x="10" y="426">│ │ │ │ └── wrappy@1.0.2 </tspan>
<tspan x="10" y="442">│ │ │ ├── inherits@2.0.3 </tspan>
<tspan x="10" y="458">│ │ │ ├─┬ minimatch@2.0.10 </tspan>
<tspan x="10" y="474">│ │ │ │ └─┬ brace-expansion@1.1.7 </tspan>
<tspan x="10" y="490">│ │ │ │   ├── balanced-match@0.4.2 </tspan>
<tspan x="10" y="506">│ │ │ │   └── concat-map@0.0.1 </tspan>
<tspan x="10" y="522">│ │ │ └── once@1.4.0 </tspan>
<tspan x="10" y="538">│ │ ├── lodash@2.4.2 </tspan>
<tspan x="10" y="554">│ │ ├── minimist@1.2.0 </tspan>
<tspan x="10" y="570">│ │ ├── propprop@0.3.1 </tspan>
<tspan x="10" y="586">│ │ └─┬ through2@0.6.5 </tspan>
<tspan x="10" y="602">│ │   ├─┬ readable-stream@1.0.34 </tspan>
<tspan x="10" y="618">│ │   │ ├── core-util-is@1.0.2 </tspan>
<tspan x="10" y="634">│ │   │ ├── isarray@0.0.1 </tspan>
<tspan x="10" y="650">│ │   │ └── string_decoder@0.10.31 </tspan>
<tspan x="10" y="666">│ │   └── xtend@4.0.1 </tspan>
<tspan x="10" y="682">│ ├─┬ yeoman-generator@0.16.0 </tspan>
<tspan x="10" y="698">│ │ ├── async@0.2.10 </tspan>
<tspan x="10" y="714">│ │ ├─┬ cheerio@0.13.1 </tspan>
<tspan x="10" y="730">│ │ │ ├─┬ CSSselect@0.4.1 </tspan>
<tspan x="10" y="746">│ │ │ │ ├── CSSwhat@0.4.7 </tspan>
<tspan x="10" y="762">│ │ │ │ └── domutils@1.4.3 </tspan>
<tspan x="10" y="778">│ │ │ ├── entities@0.5.0 </tspan>
<tspan x="10" y="794">│ │ │ ├─┬ htmlparser2@3.4.0 </tspan>
<tspan x="10" y="810">│ │ │ │ ├── domelementtype@1.3.0 </tspan>
<tspan x="10" y="826">│ │ │ │ ├── domhandler@2.2.1 </tspan>
<tspan x="10" y="842">│ │ │ │ ├── domutils@1.3.0 </tspan>
<tspan x="10" y="858">│ │ │ │ └── readable-stream@1.1.14 </tspan>
<tspan x="10" y="874">│ │ │ └── underscore@1.5.2 </tspan>
<tspan x="10" y="890">│ │ ├─┬ class-extend@0.1.2 </tspan>
<tspan x="10" y="906">│ │ │ └── object-assign@2.1.1 </tspan>
<tspan x="10" y="922">│ │ ├── dargs@0.1.0 </tspan>
<tspan x="10" y="938">│ │ ├── debug@0.7.4 </tspan>
<tspan x="10" y="954">│ │ ├── diff@1.0.8 </tspan>
<tspan x="10" y="970">│ │ ├─┬ download@0.1.19 </tspan>
<tspan x="10" y="986">│ │ │ ├─┬ decompress@0.2.5 </tspan>
<tspan x="10" y="1002">│ │ │ │ ├── adm-zip@0.4.7 </tspan>
<tspan x="10" y="1018">│ │ │ │ ├─┬ ext-name@1.0.1 </tspan>
<tspan x="10" y="1034">│ │ │ │ │ └─┬ ext-list@0.2.0 </tspan>
<tspan x="10" y="1050">│ │ │ │ │   └─┬ got@0.2.0 </tspan>
<tspan x="10" y="1066">│ │ │ │ │     └── object-assign@0.3.1 </tspan>
<tspan x="10" y="1082">│ │ │ │ ├─┬ stream-combiner@0.0.4 </tspan>
<tspan x="10" y="1098">│ │ │ │ │ └── duplexer@0.1.1 </tspan>
<tspan x="10" y="1114">│ │ │ │ ├─┬ tar@0.1.20 </tspan>
<tspan x="10" y="1130">│ │ │ │ │ ├── block-stream@0.0.9 </tspan>
<tspan x="10" y="1146">│ │ │ │ │ └─┬ fstream@0.1.31 </tspan>
<tspan x="10" y="1162">│ │ │ │ │   ├─┬ graceful-fs@3.0.11 </tspan>
<tspan x="10" y="1178">│ │ │ │ │   │ └── natives@1.1.0 </tspan>
<tspan x="10" y="1194">│ │ │ │ │   └─┬ mkdirp@0.5.1 </tspan>
<tspan x="10" y="1210">│ │ │ │ │     └── minimist@0.0.8 </tspan>
<tspan x="10" y="1226">│ │ │ │ └─┬ tempfile@0.1.3 </tspan>
<tspan x="10" y="1242">│ │ │ │   └── uuid@1.4.2 </tspan>
<tspan x="10" y="1258">│ │ │ ├── each-async@0.1.3 </tspan>
<tspan x="10" y="1274">│ │ │ ├── get-stdin@0.1.0 </tspan>
<tspan x="10" y="1290">│ │ │ ├── get-urls@0.1.2 </tspan>
<tspan x="10" y="1306">│ │ │ ├─┬ nopt@2.2.1 </tspan>
<tspan x="10" y="1322">│ │ │ │ └── abbrev@1.1.0 </tspan>
<tspan x="10" y="1338">│ │ │ ├─┬ request@2.81.0 </tspan>
<tspan x="10" y="1354">│ │ │ │ ├── aws-sign2@0.6.0 </tspan>
<tspan x="10" y="1370">│ │ │ │ ├── aws4@1.6.0 </tspan>
<tspan x="10" y="1386">│ │ │ │ ├── caseless@0.12.0 </tspan>
<tspan x="10" y="1402">│ │ │ │ ├─┬ combined-stream@1.0.5 </tspan>
<tspan x="10" y="1418">│ │ │ │ │ └── delayed-stream@1.0.0 </tspan>
<tspan x="10" y="1434">│ │ │ │ ├── extend@3.0.0 </tspan>
<tspan x="10" y="1450">│ │ │ │ ├── forever-agent@0.6.1 </tspan>
<tspan x="10" y="1466">│ │ │ │ ├─┬ form-data@2.1.4 </tspan>
<tspan x="10" y="1482">│ │ │ │ │ └── asynckit@0.4.0 </tspan>
<tspan x="10" y="1498">│ │ │ │ ├─┬ har-validator@4.2.1 </tspan>
<tspan x="10" y="1514">│ │ │ │ │ ├─┬ ajv@4.11.7 </tspan>
<tspan x="10" y="1530">│ │ │ │ │ │ ├── co@4.6.0 </tspan>
<tspan x="10" y="1546">│ │ │ │ │ │ └─┬ json-stable-stringify@1.0.1 </tspan>
<tspan x="10" y="1562">│ │ │ │ │ │   └── jsonify@0.0.0 </tspan>
<tspan x="10" y="1578">│ │ │ │ │ └── har-schema@1.0.5 </tspan>
<tspan x="10" y="1594">│ │ │ │ ├─┬ hawk@3.1.3 </tspan>
<tspan x="10" y="1610">│ │ │ │ │ ├── boom@2.10.1 </tspan>
<tspan x="10" y="1626">│ │ │ │ │ ├── cryptiles@2.0.5 </tspan>
<tspan x="10" y="1642">│ │ │ │ │ ├── hoek@2.16.3 </tspan>
<tspan x="10" y="1658">│ │ │ │ │ └── sntp@1.0.9 </tspan>
<tspan x="10" y="1674">│ │ │ │ ├─┬ http-signature@1.1.1 </tspan>
<tspan x="10" y="1690">│ │ │ │ │ ├── assert-plus@0.2.0 </tspan>
<tspan x="10" y="1706">│ │ │ │ │ ├─┬ jsprim@1.4.0 </tspan>
<tspan x="10" y="1722">│ │ │ │ │ │ ├── assert-plus@1.0.0 </tspan>
<tspan x="10" y="1738">│ │ │ │ │ │ ├── extsprintf@1.0.2 </tspan>
<tspan x="10" y="1754">│ │ │ │ │ │ ├── json-schema@0.2.3 </tspan>
<tspan x="10" y="1770">│ │ │ │ │ │ └── verror@1.3.6 </tspan>
<tspan x="10" y="1786">│ │ │ │ │ └─┬ sshpk@1.13.0 </tspan>
<tspan x="10" y="1802">│ │ │ │ │   ├── asn1@0.2.3 </tspan>
<tspan x="10" y="1818">│ │ │ │ │   ├── assert-plus@1.0.0 </tspan>
<tspan x="10" y="1834">│ │ │ │ │   ├── bcrypt-pbkdf@1.0.1 </tspan>
<tspan x="10" y="1850">│ │ │ │ │   ├─┬ dashdash@1.14.1 </tspan>
<tspan x="10" y="1866">│ │ │ │ │   │ └── assert-plus@1.0.0 </tspan>
<tspan x="10" y="1882">│ │ │ │ │   ├── ecc-jsbn@0.1.1 </tspan>
<tspan x="10" y="1898">│ │ │ │ │   ├─┬ getpass@0.1.6 </tspan>
<tspan x="10" y="1914">│ │ │ │ │   │ └── assert-plus@1.0.0 </tspan>
<tspan x="10" y="1930">│ │ │ │ │   ├── jodid25519@1.0.2 </tspan>
<tspan x="10" y="1946">│ │ │ │ │   ├── jsbn@0.1.1 </tspan>
<tspan x="10" y="1962">│ │ │ │ │   └── tweetnacl@0.14.5 </tspan>
<tspan x="10" y="1978">│ │ │ │ ├── is-typedarray@1.0.0 </tspan>
<tspan x="10" y="1994">│ │ │ │ ├── isstream@0.1.2 </tspan>
<tspan x="10" y="2010">│ │ │ │ ├─┬ mime-types@2.1.15 </tspan>
<tspan x="10" y="2026">│ │ │ │ │ └── mime-db@1.27.0 </tspan>
<tspan x="10" y="2042">│ │ │ │ ├── oauth-sign@0.8.2 </tspan>
<tspan x="10" y="2058">│ │ │ │ ├── performance-now@0.2.0 </tspan>
<tspan x="10" y="2074">│ │ │ │ ├── qs@6.4.0 </tspan>
<tspan x="10" y="2090">│ │ │ │ ├── safe-buffer@5.0.1 </tspan>
<tspan x="10" y="2106">│ │ │ │ ├── stringstream@0.0.5 </tspan>
<tspan x="10" y="2122">│ │ │ │ ├── tough-cookie@2.3.2 </tspan>
<tspan x="10" y="2138">│ │ │ │ ├── tunnel-agent@0.6.0 </tspan>
<tspan x="10" y="2154">│ │ │ │ └── uuid@3.0.1 </tspan>
<tspan x="10" y="2170">│ │ │ └─┬ through2@0.4.2 </tspan>
<tspan x="10" y="2186">│ │ │   └─┬ xtend@2.1.2 </tspan>
<tspan x="10" y="2202">│ │ │     └── object-keys@0.4.0 </tspan>
<tspan x="10" y="2218">│ │ ├─┬ file-utils@0.1.5 </tspan>
<tspan x="10" y="2234">│ │ │ ├─┬ glob@3.2.11 </tspan>
<tspan x="10" y="2250">│ │ │ │ └── minimatch@0.3.0 </tspan>
<tspan x="10" y="2266">│ │ │ ├── isbinaryfile@0.1.9 </tspan>
<tspan x="10" y="2282">│ │ │ ├── lodash@2.1.0 </tspan>
<tspan x="10" y="2298">│ │ │ └─┬ minimatch@0.2.14 </tspan>
<tspan x="10" y="2314">│ │ │   ├── lru-cache@2.7.3 </tspan>
<tspan x="10" y="2330">│ │ │   └── sigmund@1.0.1 </tspan>
<tspan x="10" y="2346">│ │ ├─┬ findup-sync@0.1.3 </tspan>
<tspan x="10" y="2362">│ │ │ └─┬ glob@3.2.11 </tspan>
<tspan x="10" y="2378">│ │ │   └── minimatch@0.3.0 </tspan>
<tspan x="10" y="2394">│ │ ├─┬ glob@3.2.11 </tspan>
<tspan x="10" y="2410">│ │ │ └── minimatch@0.3.0 </tspan>
<tspan x="10" y="2426">│ │ ├── iconv-lite@0.2.11 </tspan>
<tspan x="10" y="2442">│ │ ├─┬ inquirer@0.4.1 </tspan>
<tspan x="10" y="2458">│ │ │ ├─┬ cli-color@0.2.3 </tspan>
<tspan x="10" y="2474">│ │ │ │ ├── es5-ext@0.9.2 </tspan>
<tspan x="10" y="2490">│ │ │ │ └─┬ memoizee@0.2.6 </tspan>
<tspan x="10" y="2506">│ │ │ │   ├── event-emitter@0.2.2 </tspan>
<tspan x="10" y="2522">│ │ │ │   └── next-tick@0.1.0 </tspan>
<tspan x="10" y="2538">│ │ │ ├── mute-stream@0.0.4 </tspan>
<tspan x="10" y="2554">│ │ │ ├─┬ readline2@0.1.1 </tspan>
<tspan x="10" y="2570">│ │ │ │ └─┬ strip-ansi@2.0.1 </tspan>
<tspan x="10" y="2586">│ │ │ │   └── ansi-regex@1.1.1 </tspan>
<tspan x="10" y="2602">│ │ │ └── through@2.3.8 </tspan>
<tspan x="10" y="2618">│ │ ├── isbinaryfile@2.0.4 </tspan>
<tspan x="10" y="2634">│ │ ├── mime@1.2.11 </tspan>
<tspan x="10" y="2650">│ │ ├── mkdirp@0.3.5 </tspan>
<tspan x="10" y="2666">│ │ ├─┬ request@2.30.0 </tspan>
<tspan x="10" y="2682">│ │ │ ├── aws-sign2@0.5.0 </tspan>
<tspan x="10" y="2698">│ │ │ ├── forever-agent@0.5.2 </tspan>
<tspan x="10" y="2714">│ │ │ ├─┬ form-data@0.1.4 </tspan>
<tspan x="10" y="2730">│ │ │ │ ├── async@0.9.2 </tspan>
<tspan x="10" y="2746">│ │ │ │ └─┬ combined-stream@0.0.7 </tspan>
<tspan x="10" y="2762">│ │ │ │   └── delayed-stream@0.0.5 </tspan>
<tspan x="10" y="2778">│ │ │ ├─┬ hawk@1.0.0 </tspan>
<tspan x="10" y="2794">│ │ │ │ ├── boom@0.4.2 </tspan>
<tspan x="10" y="2810">│ │ │ │ ├── cryptiles@0.2.2 </tspan>
<tspan x="10" y="2826">│ │ │ │ ├── hoek@0.9.1 </tspan>
<tspan x="10" y="2842">│ │ │ │ └── sntp@0.2.4 </tspan>
<tspan x="10" y="2858">│ │ │ ├─┬ http-signature@0.10.1 </tspan>
<tspan x="10" y="2874">│ │ │ │ ├── asn1@0.1.11 </tspan>
<tspan x="10" y="2890">│ │ │ │ ├── assert-plus@0.1.5 </tspan>
<tspan x="10" y="2906">│ │ │ │ └── ctype@0.5.3 </tspan>
<tspan x="10" y="2922">│ │ │ ├── json-stringify-safe@5.0.1 </tspan>
<tspan x="10" y="2938">│ │ │ ├── node-uuid@1.4.8 </tspan>
<tspan x="10" y="2954">│ │ │ ├── oauth-sign@0.3.0 </tspan>
<tspan x="10" y="2970">│ │ │ ├── qs@0.6.6 </tspan>
<tspan x="10" y="2986">│ │ │ ├─┬ tough-cookie@0.9.15 </tspan>
<tspan x="10" y="3002">│ │ │ │ └── punycode@1.4.1 </tspan>
<tspan x="10" y="3018">│ │ │ └── tunnel-agent@0.3.0 </tspan>
<tspan x="10" y="3034">│ │ ├── rimraf@2.2.8 </tspan>
<tspan x="10" y="3050">│ │ ├── shelljs@0.2.6 </tspan>
<tspan x="10" y="3066">│ │ ├── text-table@0.2.0 </tspan>
<tspan x="10" y="3082">│ │ └── underscore.string@2.3.3 </tspan>
<tspan x="10" y="3098">│ └─┬ yosay@0.2.1 </tspan>
<tspan x="10" y="3114">│   ├── minimist@0.0.9 </tspan>
<tspan x="10" y="3130">│   ├── pad-component@0.0.1 </tspan>
<tspan x="10" y="3146">│   └── word-wrap@0.1.3 </tspan>
<tspan x="10" y="3162">├── UNMET PEER DEPENDENCY generator-karma@&gt;=0.8.3</tspan>
<tspan x="10" y="3178">└── UNMET PEER DEPENDENCY yo@&gt;=1.3.3</tspan>
</text>
</svg>
